<svg xmlns="http://www.w3.org/2000/svg" xmlns:xlink="http://www.w3.org/1999/xlink" id="Layer_1" x="0" y="0" version="1.1" viewBox="0 0 256 256" style="enable-background:new 0 0 256 256" xml:space="preserve"><style type="text/css">.st0{opacity:.38}.st1{fill:url(#SVGID_1_)}.st2{fill:url(#SVGID_2_)}.st3{fill:url(#SVGID_3_)}.st4{fill:#030304}.st5{fill:url(#SVGID_4_)}.st6{display:none;opacity:.62;fill:none;stroke:url(#SVGID_5_);stroke-width:44.6935;stroke-miterlimit:10}</style><image style="overflow:visible;opacity:.52" width="2234" height="919" transform="matrix(5.620911e-02 0 0 5.620911e-02 81.9946 50.1315)" xlink:href="33124D06.png"/><image style="overflow:visible;opacity:.52" width="2222" height="2050" transform="matrix(5.620911e-02 0 0 5.620911e-02 53.0469 95.2112)" xlink:href="33124D0A.png"/><g class="st0"><image style="overflow:visible;opacity:.91" width="3994" height="3945" transform="matrix(5.620689e-02 4.993642e-04 -4.993642e-04 5.620689e-02 19.1869 18.7857)" xlink:href="33124D0D.png"/><image style="overflow:visible;opacity:.91" width="4570" height="4514" transform="matrix(5.620689e-02 4.993642e-04 -4.993642e-04 5.620689e-02 3.1411 2.6791)" xlink:href="33124D0E.png"/><image style="overflow:visible;opacity:.91" width="2259" height="944" transform="matrix(5.620689e-02 4.993642e-04 -4.993642e-04 5.620689e-02 81.9879 48.967)" xlink:href="33124D0C.png"/><image style="overflow:visible;opacity:.91" width="2246" height="2074" transform="matrix(5.620689e-02 4.993642e-04 -4.993642e-04 5.620689e-02 52.6965 93.8445)" xlink:href="33124D0B.png"/></g><g><radialGradient id="SVGID_1_" cx="130.444" cy="130.667" r="102.397" gradientUnits="userSpaceOnUse"><stop offset="0" style="stop-color:#fcca64"/><stop offset=".542" style="stop-color:#dba859"/><stop offset="1" style="stop-color:#fecd67"/></radialGradient><path d="M130.5,232.4c-0.1,0-0.2,0-0.3,0c-13.9,0-27.4-2.8-40.1-8.1c-12.3-5.2-23.3-12.5-32.7-21.9 c-9.4-9.4-16.8-20.3-22-32.4c-5.3-12.6-8-25.9-8-39.6c0-13.7,2.8-27,8.2-39.6c5.2-12.1,12.7-23,22.2-32.3 c9.5-9.3,20.5-16.6,32.8-21.7c12.6-5.2,26-7.9,39.8-7.9c0.1,0,0.2,0,0.3,0c13.9,0,27.4,2.8,40.1,8.1c12.3,5.2,23.3,12.5,32.7,21.9 c9.4,9.4,16.8,20.3,22,32.4c5.3,12.6,8,25.9,8,39.6c0,13.7-2.8,27-8.2,39.6c-5.2,12.1-12.7,23-22.2,32.3 c-9.5,9.3-20.5,16.6-32.8,21.7C157.7,229.7,144.3,232.4,130.5,232.4z M130.4,30.6C74.6,30.6,29.2,75.3,29,130.4 c-0.1,26.7,10.4,51.9,29.5,70.9c19.1,19,44.5,29.4,71.6,29.5c0.1,0,0.2,0,0.3,0c55.8,0,101.3-44.7,101.4-99.8 c0.1-26.7-10.4-51.9-29.5-70.9c-19.1-19-44.5-29.4-71.6-29.5C130.6,30.6,130.5,30.6,130.4,30.6z" class="st1"/></g><g><linearGradient id="SVGID_2_" x1="92.003" x2="168.884" y1="19.189" y2="242.144" gradientUnits="userSpaceOnUse"><stop offset="0" style="stop-color:#f9f19b"/><stop offset=".006" style="stop-color:#faef98"/><stop offset=".042" style="stop-color:#fbdf87"/><stop offset=".084" style="stop-color:#fbd37a"/><stop offset=".132" style="stop-color:#fbca71"/><stop offset=".192" style="stop-color:#fbc46b"/><stop offset=".31" style="stop-color:#fbc26a"/><stop offset=".908" style="stop-color:#fbc069"/><stop offset=".955" style="stop-color:#f9bf68"/><stop offset=".972" style="stop-color:#f2b965"/><stop offset=".984" style="stop-color:#e5af5f"/><stop offset=".993" style="stop-color:#d4a257"/><stop offset="1" style="stop-color:#c2954f"/></linearGradient><path d="M240.5,85.2c-6-14-14.5-26.7-25.5-37.5c-10.9-10.8-23.6-19.4-37.8-25.3c-14.7-6.2-30.3-9.3-46.4-9.4h-0.4 c-16,0-31.5,3.1-46.1,9.1c-14.2,5.9-27,14.3-38,25.1c-11,10.8-19.6,23.3-25.7,37.3c-6.3,14.5-9.5,29.9-9.5,45.8 c0,15.9,3.1,31.3,9.2,45.9c6,14,14.5,26.7,25.5,37.5C56.8,224.5,69.5,233,83.7,239c14.7,6.2,30.3,9.3,46.4,9.4c0.1,0,0.2,0,0.4,0 c16,0,31.5-3.1,46.1-9.1c14.2-5.9,27-14.3,38-25.1c11-10.8,19.6-23.3,25.7-37.3c6.3-14.5,9.5-29.9,9.5-45.8 C249.7,115.1,246.6,99.7,240.5,85.2z M130.5,241.4c-0.1,0-0.2,0-0.3,0c-30-0.1-58.1-11.7-79.3-32.7c-21.1-21-32.7-48.8-32.6-78.4 C18.4,69.4,68.7,20,130.4,20h0.3c61.9,0.2,112.1,50,111.9,111C242.5,191.9,192.2,241.4,130.5,241.4z" class="st2"/></g><linearGradient id="SVGID_3_" x1="136.585" x2="154.988" y1="52.074" y2="105.443" gradientUnits="userSpaceOnUse"><stop offset="0" style="stop-color:#f9f19b"/><stop offset=".006" style="stop-color:#faef98"/><stop offset=".042" style="stop-color:#fbdf87"/><stop offset=".084" style="stop-color:#fbd37a"/><stop offset=".132" style="stop-color:#fbca71"/><stop offset=".192" style="stop-color:#fbc46b"/><stop offset=".31" style="stop-color:#fbc26a"/><stop offset=".793" style="stop-color:#fbc069"/><stop offset="1" style="stop-color:#c2954f"/></linearGradient><path d="M190.4,92.3c-0.1,0.5-0.6,0.9-1.2,0.9H91.9c-1.2,0-1.8-1.4-1-2.2l26.4-31.6c0.3-0.4,0.7-0.6,1.2-0.6l79.4-0.1	c0.7,0,1.2,0.7,1.1,1.4L190.4,92.3z" class="st3"/><polygon points="197.6 60.1 189 91.9 92.1 91.9 118.5 60.1" class="st4"/><linearGradient id="SVGID_4_" x1="67.668" x2="147.764" y1="127.729" y2="195.81" gradientUnits="userSpaceOnUse"><stop offset="0" style="stop-color:#f9f08e"/><stop offset=".008" style="stop-color:#faec8a"/><stop offset=".045" style="stop-color:#fbdd7e"/><stop offset=".085" style="stop-color:#fbd174"/><stop offset=".133" style="stop-color:#fbc86d"/><stop offset=".193" style="stop-color:#fbc269"/><stop offset=".31" style="stop-color:#fbc168"/><stop offset=".793" style="stop-color:#fbc069"/><stop offset="1" style="stop-color:#c2954f"/></linearGradient><path d="M61.6,199.9l8.4-31.4c0.2-0.7,0.8-1.2,1.6-1.2h55.8l-16-29H80.5c-1.1,0-1.8-1-1.6-2l8.3-31.4	c0.2-0.7,0.8-1.2,1.6-1.2h42.4c0.6,0,1.1,0.3,1.4,0.8l36.6,64.1c0.3,0.6,0.3,1.3-0.2,1.8l-26.1,31c-0.3,0.4-0.8,0.6-1.2,0.6H63.1	C62.1,202,61.3,201,61.6,199.9z" class="st5"/><polygon points="131.4 105.1 88.7 105.1 80.3 136.9 112.2 136.9 129.7 168.7 71.4 168.7 62.9 200.6 141.9 200.6 168.1 169.4" class="st4"/><linearGradient id="SVGID_5_" x1="-10.374" x2="198.552" y1="16.678" y2="194.265" gradientTransform="matrix(1.0112 8.984803e-03 -8.842017e-03 0.9951 32.2325 24.8625)" gradientUnits="userSpaceOnUse"><stop offset="0" style="stop-color:#f9f08e"/><stop offset=".008" style="stop-color:#faec8a"/><stop offset=".045" style="stop-color:#fbdd7e"/><stop offset=".085" style="stop-color:#fbd174"/><stop offset=".133" style="stop-color:#fbc86d"/><stop offset=".193" style="stop-color:#fbc269"/><stop offset=".31" style="stop-color:#fbc168"/><stop offset=".793" style="stop-color:#fbc069"/><stop offset=".845" style="stop-color:#f5bc66"/><stop offset=".908" style="stop-color:#e5af5f"/><stop offset=".979" style="stop-color:#cb9c53"/><stop offset="1" style="stop-color:#c2954f"/></linearGradient><ellipse cx="126.4" cy="130.7" class="st6" rx="114.2" ry="116" transform="matrix(8.884043e-03 -1 1 8.884043e-03 -5.3408 255.9442)"/></svg>