<svg xmlns="http://www.w3.org/2000/svg" xmlns:xlink="http://www.w3.org/1999/xlink" width="256" height="256" version="1.1" viewBox="0 0 256 256"><title>Group 7</title><defs><linearGradient id="linearGradient-1" x1="100%" x2="0%" y1="50%" y2="50%"><stop offset="0%" stop-color="#1D9DD8"/><stop offset="100%" stop-color="#0D73CB"/></linearGradient></defs><g id="Page-2" fill="none" fill-rule="evenodd" stroke="none" stroke-width="1"><g id="Group-4"><circle id="Oval" cx="128" cy="128" r="128" fill="url(#linearGradient-1)"/><g id="goETH" fill-rule="nonzero" transform="translate(17.123746, 14.726421)"><path id="Path" fill="#62688F" d="M111.732486,215.074247 C168.806957,215.074247 215.074247,168.806957 215.074247,111.732486 C215.074247,54.658374 168.806957,8.39063545 111.732486,8.39063545 C54.658374,8.39063545 8.39063545,54.658374 8.39063545,111.732486 C8.39063545,168.806957 54.658374,215.074247 111.732486,215.074247 Z"/><path id="Shape" fill="#1BFED7" d="M111.989275,223.978595 C50.2518354,223.978595 0,173.740714 0,111.989275 C0,50.2382848 50.2518354,0 111.989275,0 C173.727253,0 223.978595,50.2518354 223.978595,111.989275 C223.978595,173.727253 173.740714,223.978595 111.989275,223.978595 Z M111.989275,17.172297 C59.7069525,17.172297 17.172297,59.7069525 17.172297,111.989275 C17.172297,164.271419 59.7069525,206.806074 111.989275,206.806074 C164.271419,206.806074 206.806074,164.271419 206.806074,111.989275 C206.806074,59.7069525 164.271419,17.172297 111.989275,17.172297 L111.989275,17.172297 Z"/><polygon id="Path" fill="#A7A7A7" points="111.989 90.071 111.989 143.326 162.676 113.237"/><polygon id="Path" fill="#D3D3D3" points="111.989 90.169 111.989 28.768 162.676 113.359"/><polygon id="Path" fill="#FFF" points="111.989 28.768 61.303 113.359 111.989 90.169"/><polygon id="Path" fill="#D3D3D3" points="61.303 113.237 111.989 143.326 111.989 90.071"/><polygon id="Path" fill="#FFF" points="61.303 123.12 111.989 195.039 111.989 153.279"/><polygon id="Path" fill="#A7A7A7" points="111.989 153.279 162.676 123.12 111.989 195.039"/></g></g></g></svg>