<svg xmlns="http://www.w3.org/2000/svg" xmlns:xlink="http://www.w3.org/1999/xlink" id="Layer_1" x="0" y="0" version="1.1" viewBox="0 0 256 256" style="enable-background:new 0 0 256 256" xml:space="preserve"><style type="text/css">.st0{fill:url(#SVGID_1_)}.st1{fill:#ffd57e}.st1,.st2,.st3,.st4,.st5,.st6,.st7{stroke:#000;stroke-miterlimit:10}.st2{fill:url(#SVGID_2_)}.st3{fill:url(#SVGID_3_)}.st4{fill:url(#SVGID_4_)}.st5{fill:url(#SVGID_5_)}.st6{fill:url(#SVGID_6_)}.st7{fill:url(#SVGID_7_)}.st8{fill:url(#SVGID_8_)}.st9{fill:url(#SVGID_9_)}.st10{fill:url(#SVGID_10_)}.st11{fill:url(#SVGID_11_)}.st12{fill:url(#SVGID_12_)}</style><linearGradient id="SVGID_1_" x1="205.064" x2="47.306" y1="218.748" y2="32.977" gradientUnits="userSpaceOnUse"><stop offset="0" style="stop-color:#ffb224"/><stop offset=".138" style="stop-color:#ffb429"/><stop offset=".304" style="stop-color:#ffba38"/><stop offset=".485" style="stop-color:#ffc350"/><stop offset=".677" style="stop-color:#ffd072"/><stop offset=".875" style="stop-color:#ffe19e"/><stop offset="1" style="stop-color:#ffedbd"/></linearGradient><ellipse cx="128" cy="128" class="st0" rx="128" ry="126"/><ellipse cx="128" cy="128" class="st1" rx="111.68" ry="109.39"/><radialGradient id="SVGID_2_" cx="128" cy="128.007" r="128.242" gradientTransform="matrix(1 0 0 0.982 0 2.2999)" gradientUnits="userSpaceOnUse"><stop offset="0" style="stop-color:#ffb428"/><stop offset=".373" style="stop-color:#fdb328"/><stop offset=".507" style="stop-color:#f6ae27"/><stop offset=".603" style="stop-color:#eba625"/><stop offset=".68" style="stop-color:#da9a22"/><stop offset=".746" style="stop-color:#c48a1f"/><stop offset=".805" style="stop-color:#a8771a"/><stop offset=".858" style="stop-color:#886015"/><stop offset=".907" style="stop-color:#62450f"/><stop offset=".952" style="stop-color:#372709"/><stop offset=".993" style="stop-color:#090701"/><stop offset="1" style="stop-color:#000"/></radialGradient><ellipse cx="128" cy="128" class="st2" rx="103.56" ry="102.55"/><g><linearGradient id="SVGID_3_" x1="49.559" x2="94.017" y1="92.642" y2="153.412" gradientUnits="userSpaceOnUse"><stop offset="0" style="stop-color:#ffe8b0"/><stop offset=".004" style="stop-color:#ffe7ae"/><stop offset=".094" style="stop-color:#ffd98a"/><stop offset=".189" style="stop-color:#ffce6b"/><stop offset=".294" style="stop-color:#ffc451"/><stop offset=".411" style="stop-color:#ffbc3d"/><stop offset=".544" style="stop-color:#ffb730"/><stop offset=".708" style="stop-color:#ffb427"/><stop offset="1" style="stop-color:#ffb325"/></linearGradient><path d="M50.64,97.14c0.18-0.17,0.39-0.15,0.6-0.15c2.55,0,5.1-0.01,7.65-0.01c0.41,0,0.48,0.07,0.48,0.48 c0,5.31,0,10.62,0,15.93c0,0.06,0.01,0.13,0.01,0.22c0.41-0.01,0.78-0.12,1.15-0.21c1.79-0.42,3.54-0.96,5.16-1.87 c1.99-1.12,3.48-2.71,4.51-4.74c1.11-2.2,1.64-4.54,1.9-6.97c0.08-0.8,0.12-1.6,0.16-2.4c0.01-0.31,0.15-0.43,0.46-0.43 c2.63,0,5.26,0,7.89-0.01c0.29,0,0.44,0.11,0.43,0.41c-0.11,3.89-0.64,7.71-2.14,11.34c-1.87,4.53-4.98,7.93-9.36,10.16 c-2.71,1.38-5.61,2.18-8.6,2.65c-0.5,0.08-1.01,0.14-1.54,0.22c0,2.75,0,5.49,0,8.29c0.57-0.05,1.13-0.1,1.69-0.16 c2.52-0.31,5.02-0.74,7.47-1.4c2.97-0.79,5.82-1.86,8.51-3.36c5.18-2.9,8.99-7.03,11.33-12.5c1.23-2.88,1.96-5.9,2.36-9 c0.26-2.06,0.36-4.12,0.38-6.19c0-0.4,0.06-0.45,0.47-0.45c2.71,0,5.41,0,8.12,0c0.62,0,0.65,0.03,0.63,0.64 c-0.08,3.03-0.33,6.04-0.86,9.03c-0.95,5.33-2.71,10.36-5.72,14.9c-2.15,3.23-4.8,5.98-7.93,8.28c-4.03,2.96-8.51,4.98-13.27,6.41 c-3.13,0.94-6.31,1.62-9.54,2.08c-1.2,0.17-2.4,0.32-3.61,0.48c-0.07,0.11-0.04,0.24-0.04,0.36c0,6.42,0,12.85,0,19.27 c0,0.12,0.02,0.25,0.01,0.37c-0.03,0.24-0.12,0.4-0.41,0.33c-0.13-0.03-0.26-0.03-0.4-0.03c-2.47,0.02-4.95,0.04-7.42,0.06 c-0.16,0-0.34,0.03-0.49-0.13C50.64,138.41,50.64,117.79,50.64,97.14z" class="st3"/><linearGradient id="SVGID_4_" x1="102.597" x2="148.415" y1="113.264" y2="159.872" gradientUnits="userSpaceOnUse"><stop offset="0" style="stop-color:#ffe6ac"/><stop offset=".011" style="stop-color:#ffe4a7"/><stop offset=".088" style="stop-color:#ffd784"/><stop offset=".175" style="stop-color:#ffcb67"/><stop offset=".27" style="stop-color:#ffc24e"/><stop offset=".376" style="stop-color:#ffbb3c"/><stop offset=".502" style="stop-color:#ffb62f"/><stop offset=".665" style="stop-color:#ffb327"/><stop offset="1" style="stop-color:#ffb225"/></linearGradient><path d="M129.94,97.01c1.57,1.86,3.11,3.72,4.65,5.58c4.46,5.4,8.91,10.8,13.37,16.21c0.31,0.38,0.31,0.41-0.01,0.78 c-5.39,6.35-10.77,12.7-16.16,19.05c-0.08,0.09-0.15,0.19-0.24,0.29c0.87,1.01,1.72,2.01,2.57,3.01 c4.66,5.44,9.31,10.87,13.97,16.31c0.11,0.12,0.25,0.24,0.17,0.44c-0.09,0.21-0.28,0.18-0.46,0.18c-3.19-0.02-6.37-0.05-9.56-0.07 c-0.3,0-0.47-0.15-0.63-0.35c-3.43-4.11-6.87-8.22-10.3-12.33c-0.46-0.55-0.91-1.09-1.4-1.67c-0.25,0.31-0.49,0.59-0.73,0.88 c-3.56,4.35-7.12,8.7-10.68,13.05c-0.23,0.28-0.47,0.41-0.84,0.41c-3.03,0.01-6.06,0.04-9.09,0.06c-0.09,0-0.18,0-0.27,0 c-0.14,0-0.27-0.02-0.34-0.16c-0.08-0.16,0-0.28,0.1-0.39c0.59-0.7,1.18-1.39,1.77-2.09c4.82-5.67,9.65-11.35,14.47-17.02 c0.06-0.07,0.11-0.14,0.17-0.21c-0.07-0.19-0.22-0.31-0.34-0.45c-5.35-6.32-10.71-12.64-16.06-18.96 c-0.37-0.43-0.37-0.44-0.02-0.87c5.73-7.12,11.46-14.24,17.2-21.36c0.08-0.1,0.16-0.18,0.27-0.28c0.14-0.06,0.26-0.03,0.38-0.03 c1.73,0,3.47,0,5.23-0.02C128.08,97.01,128.99,97.01,129.94,97.01z" class="st4"/><linearGradient id="SVGID_5_" x1="146.79" x2="177.831" y1="109.682" y2="139.444" gradientUnits="userSpaceOnUse"><stop offset="0" style="stop-color:#ffe6ac"/><stop offset=".143" style="stop-color:#ffd888"/><stop offset=".312" style="stop-color:#ffca64"/><stop offset=".482" style="stop-color:#ffc049"/><stop offset=".653" style="stop-color:#ffb835"/><stop offset=".825" style="stop-color:#ffb429"/><stop offset="1" style="stop-color:#ffb225"/></linearGradient><path d="M176,102.34c1.8,1.06,3.57,2.1,5.34,3.14c0.42,0.25,0.44,0.31,0.2,0.73c-0.95,1.72-1.9,3.45-2.85,5.17 c-0.23,0.41-0.29,0.43-0.7,0.18c-3.38-2-6.75-4.01-10.13-6.01c-0.1-0.06-0.21-0.12-0.33-0.19c-0.08,0.16-0.05,0.3-0.05,0.44 c0,17.41,0,34.82,0,52.22c0,0.75,0,0.75-0.75,0.74c-2.47,0-4.94-0.01-7.42-0.01c-0.5,0-0.54-0.04-0.54-0.53 c-0.02-20.2-0.04-40.4-0.06-60.6c0-0.5,0.05-0.55,0.55-0.56c2.43-0.03,4.86-0.05,7.28-0.08c0.23,0,0.43,0.05,0.63,0.17 C170.11,98.88,173.05,100.6,176,102.34z" class="st5"/><linearGradient id="SVGID_6_" x1="193.128" x2="210.096" y1="115.858" y2="130.808" gradientUnits="userSpaceOnUse"><stop offset="0" style="stop-color:#ffe7ae"/><stop offset=".199" style="stop-color:#ffd887"/><stop offset=".449" style="stop-color:#ffc85c"/><stop offset=".675" style="stop-color:#ffbc3e"/><stop offset=".866" style="stop-color:#ffb52b"/><stop offset="1" style="stop-color:#ffb224"/></linearGradient><path d="M194.13,131.38c-0.42-0.45-0.82-0.88-1.23-1.31c-0.13-0.14-0.19-0.29-0.19-0.48 c-0.01-2.46-0.02-4.92-0.04-7.38c0-0.22,0.06-0.38,0.22-0.53c3.99-3.87,7.97-7.74,11.95-11.62c0.11-0.11,0.22-0.24,0.4-0.16 c0.2,0.08,0.19,0.25,0.18,0.42c-0.02,3.19-0.04,6.39-0.05,9.58c0,0.24-0.12,0.39-0.28,0.54c-1.91,1.79-3.81,3.59-5.71,5.38 c-0.1,0.09-0.2,0.17-0.32,0.26c0.12,0.13,0.2,0.22,0.28,0.3c1.92,1.98,3.84,3.97,5.77,5.95c0.18,0.18,0.25,0.37,0.25,0.62 c-0.01,3.14-0.01,6.28-0.01,9.42c0,0.1,0.01,0.2-0.01,0.3c-0.05,0.26-0.26,0.34-0.47,0.18c-0.09-0.07-0.16-0.16-0.23-0.24 C201.14,138.88,197.64,135.14,194.13,131.38z" class="st6"/><linearGradient id="SVGID_7_" x1="135.999" x2="109.877" y1="129.287" y2="102.112" gradientUnits="userSpaceOnUse"><stop offset="0" style="stop-color:#feb428"/><stop offset=".207" style="stop-color:#fbb228"/><stop offset=".342" style="stop-color:#f3ac26"/><stop offset=".457" style="stop-color:#e4a124"/><stop offset=".56" style="stop-color:#ce9221"/><stop offset=".655" style="stop-color:#b37f1c"/><stop offset=".745" style="stop-color:#916717"/><stop offset=".83" style="stop-color:#694b11"/><stop offset=".912" style="stop-color:#3b2a09"/><stop offset=".989" style="stop-color:#080601"/><stop offset="1" style="stop-color:#000"/></linearGradient><path d="M127.1,132.98c-0.28,0.33-0.55,0.64-0.82,0.96c-0.31,0.36-0.42,0.36-0.73-0.01c-2.07-2.47-4.14-4.95-6.22-7.43 c-1.98-2.36-3.96-4.73-5.94-7.09c-0.29-0.35-0.29-0.4-0.02-0.74c4.03-4.98,8.06-9.97,12.1-14.95c0.38-0.47,0.44-0.47,0.83-0.01 c4.16,4.97,8.31,9.94,12.47,14.91c0.3,0.36,0.3,0.38-0.01,0.76C134.88,123.9,131,128.43,127.1,132.98z" class="st7"/></g><linearGradient id="SVGID_8_" x1="178.037" x2="155.556" y1="135.214" y2="119.698" gradientUnits="userSpaceOnUse"><stop offset="0" style="stop-color:#feb428"/><stop offset=".373" style="stop-color:#fcb328"/><stop offset=".507" style="stop-color:#f5ae27"/><stop offset=".603" style="stop-color:#eaa525"/><stop offset=".68" style="stop-color:#d99922"/><stop offset=".747" style="stop-color:#c38a1f"/><stop offset=".806" style="stop-color:#a7771a"/><stop offset=".859" style="stop-color:#876015"/><stop offset=".908" style="stop-color:#61450f"/><stop offset=".953" style="stop-color:#362609"/><stop offset=".993" style="stop-color:#080601"/><stop offset="1" style="stop-color:#000"/></linearGradient><path d="M177.55,112.23c-3.33-2.18-6.36-4.31-9.75-6.36c0.15,4.92,0.05,21.19,0.05,24.1c0,7.06,0.04,14.04,0.04,20.9" class="st8"/><linearGradient id="SVGID_9_" x1="143.265" x2="120.253" y1="137.666" y2="132.207" gradientUnits="userSpaceOnUse"><stop offset="0" style="stop-color:#feb428"/><stop offset=".086" style="stop-color:#f4ad26"/><stop offset=".231" style="stop-color:#d99a22"/><stop offset=".42" style="stop-color:#ad7a1b"/><stop offset=".643" style="stop-color:#704f12"/><stop offset=".894" style="stop-color:#231905"/><stop offset="1" style="stop-color:#000"/></linearGradient><path d="M147.32,156.62c-5.37-6.07-10.41-11.98-15.53-17.77c0.9-1.01,1.27-1.48,1.92-2.22	c3.98-4.49,9.06-10.74,13.7-15.97" class="st9"/><linearGradient id="SVGID_10_" x1="115.092" x2="123.747" y1="140.372" y2="155.665" gradientUnits="userSpaceOnUse"><stop offset="0" style="stop-color:#000"/><stop offset=".109" style="stop-color:#291d06"/><stop offset=".294" style="stop-color:#694a11"/><stop offset=".472" style="stop-color:#9f7019"/><stop offset=".635" style="stop-color:#c88d1f"/><stop offset=".783" style="stop-color:#e6a324"/><stop offset=".91" style="stop-color:#f9af27"/><stop offset="1" style="stop-color:#ffb428"/></linearGradient><path d="M113.87,159.9c0.63-0.54,1.17-1.27,1.77-2.02c3.47-4.34,6.94-8.52,10.25-12.67c0.95,1.1,1.37,1.67,2.01,2.42	c1.56,1.81,4.46,5.33,4.85,5.81c0.53,0.67,2.4,2.74,3.7,4.37c0.33,0.41,0.88,1.04,1.21,1.44c0.38,0.47,0.58,0.6,0.81,0.76" class="st10"/><linearGradient id="SVGID_11_" x1="45.97" x2="76.906" y1="124.869" y2="141.115" gradientUnits="userSpaceOnUse"><stop offset="0" style="stop-color:#000"/><stop offset=".059" style="stop-color:#1a1204"/><stop offset=".205" style="stop-color:#553c0d"/><stop offset=".351" style="stop-color:#876015"/><stop offset=".494" style="stop-color:#b07d1c"/><stop offset=".632" style="stop-color:#d09421"/><stop offset=".765" style="stop-color:#e7a424"/><stop offset=".89" style="stop-color:#f5ae26"/><stop offset="1" style="stop-color:#fab127"/></linearGradient><path d="M59.96,159.27c0-6.58,0.02-13.47,0.02-20.15c3.6-0.53,3.8-0.51,4.18-0.57c2.08-0.31,4-0.68,6.25-1.18	c0.82-0.18,1.7-0.47,2.52-0.67c0.8-0.2,2.46-0.84,3.23-1.13c3.02-1.12,4.97-1.86,7.69-3.44c0.96-0.56,1.85-1.1,2.76-1.72	c1.45-1,3.52-2.81,4.13-3.42c1.12-1.1,4.3-4.25,3.69-3.6c0,0.02-0.03,0.07-0.03,0.1c0,0-25.78,24.21-26.11,24.29" class="st11"/><linearGradient id="SVGID_12_" x1="65.782" x2="60.06" y1="124.205" y2="118.547" gradientUnits="userSpaceOnUse"><stop offset="0" style="stop-color:#f9b027"/><stop offset=".093" style="stop-color:#f3ac26"/><stop offset=".221" style="stop-color:#e19f23"/><stop offset=".368" style="stop-color:#c48b1f"/><stop offset=".531" style="stop-color:#9c6e18"/><stop offset=".707" style="stop-color:#684910"/><stop offset=".89" style="stop-color:#291d06"/><stop offset="1" style="stop-color:#000"/></linearGradient><path d="M60.02,128.78c0-0.67-0.06-5.69-0.06-6.53c0.95-0.15,2.81-0.46,2.85-0.46c0.04-0.01,3.23-0.77,3.86-1.02	c2.41-0.96,3.95-1.84,4.07-1.93" class="st12"/></svg>