<svg xmlns="http://www.w3.org/2000/svg" width="256" height="256" clip-rule="evenodd" xml:space="preserve"><defs><linearGradient id="a" x1=".333" x2=".186" y1="0" y2="1"><stop offset="0" stop-color="#5c4db3"/><stop offset="1" stop-color="#e06cb9"/></linearGradient><linearGradient id="b" x1=".378" x2="0" y1=".07" y2="1"><stop offset="0" stop-color="#e06cb9"/><stop offset="1" stop-color="#42f0b6"/></linearGradient><linearGradient id="c" x1=".574" x2=".574" y1=".814" y2="0"><stop offset="0" stop-color="#5c4db3"/><stop offset="1" stop-color="#42f0b6"/></linearGradient></defs><g stroke="null"><path fill="url(#a)" d="M2652.1475 1283.1704c-7.669 8.0667-18.3113 12.6342-29.4405 12.6342h-54.8298c-3.0105 0-5.7908-1.6043-7.2959-4.2099-1.5051-2.6079-1.5051-5.8186 0-8.4243l22.8919-39.6499-22.8919-39.6498-66.1397 114.5584a38.1105 38.1105 0 0 0 17.7642 4.3888h142.5667c13.631 0 26.2246-7.2723 33.0407-19.0755a38.1413 38.1413 0 0 0 5.082-20.572h-40.7477z" transform="translate(-2574.02 -1172.74) scale(1.04588)"/><path fill="url(#b)" d="M2583.4731 1164.223c10.8208 2.6058 20.0982 9.5379 25.6624 19.1767 8.0456 13.9353 19.8572 34.3933 27.4163 47.4843 1.5031 2.6078 1.5031 5.8186 0 8.4244-1.5054 2.6058-4.2857 4.2121-7.2962 4.2121h-45.7825l-22.8918 39.65h132.314a38.1193 38.1193 0 0 0-4.3611-16.2718l-72.7766-126.0536c-6.9685-11.0496-19.138-17.7964-32.2674-17.7964-7.3413 0-14.383 2.1084-20.3828 5.9006l20.3657 35.2737z" transform="translate(-2574.02 -1172.74) scale(1.04588)"/><path fill="url(#c)" d="M2514.7983 1283.168c-3.1523-10.6724-1.7873-22.1742 3.7776-31.8131 8.045-13.933 19.8572-34.391 27.4139-47.4842 1.5048-2.6057 4.2873-4.2121 7.2954-4.2121 3.0105 0 5.791 1.6064 7.2961 4.2121l22.8919 39.6498h45.7824l-66.1482-114.5712c-5.1381 3.2473-9.5139 7.7287-12.658 13.1747-21.5951 37.4017-49.6896 86.0637-71.2841 123.4653-6.8137 11.8053-6.8137 26.3476 0 38.1531a38.1452 38.1452 0 0 0 15.2764 14.6867l20.3567-35.261z" transform="translate(-2574.02 -1172.74) scale(1.04588)"/></g></svg>