<svg xmlns="http://www.w3.org/2000/svg" xmlns:xlink="http://www.w3.org/1999/xlink" width="256" height="256" version="1.1" viewBox="0 0 256 256"><title>fgALGO</title><defs><linearGradient id="linearGradient-1" x1="100%" x2="0%" y1="50%" y2="50%"><stop offset="0%" stop-color="#1D9DD8"/><stop offset="100%" stop-color="#0D73CB"/></linearGradient><circle id="path-2" cx="128.159" cy="127.681" r="119.079"/><linearGradient id="linearGradient-4" x1="100%" x2="0%" y1="50%" y2="50%"><stop offset="0%" stop-color="#1D9DD8"/><stop offset="100%" stop-color="#0D74CB"/></linearGradient></defs><g id="Page-3" fill="none" fill-rule="evenodd" stroke="none" stroke-width="1"><g id="fgALGO"><circle id="Oval" cx="128" cy="128" r="128" fill="url(#linearGradient-1)"/><mask id="mask-3" fill="#fff"><use xlink:href="#path-2"/></mask><use id="Oval" fill="#000" xlink:href="#path-2"/><polygon id="Path" fill="#FFF" fill-rule="nonzero" points="63.26 196.261 88.071 153.445 112.882 110.795 137.525 67.979 141.608 61.197 143.429 67.979 150.987 96.168 142.529 110.795 117.718 153.445 93.054 196.261 122.701 196.261 147.512 153.445 160.367 131.285 166.418 153.445 177.913 196.261 204.545 196.261 193.051 153.445 181.556 110.795 178.52 99.799 196.966 67.979 170.04 67.979 169.14 64.828 159.76 29.857 158.546 25.329 132.688 25.329 132.081 26.226 107.878 67.979 83.088 110.795 58.424 153.445 33.613 196.261" mask="url(#mask-3)"/><circle id="Oval" cx="192.199" cy="191.721" r="55.039" fill="url(#linearGradient-4)" mask="url(#mask-3)"/><text id="3" fill="#FFF" font-family="Poppins-Bold, Poppins" font-size="103.547" font-weight="bold" letter-spacing="2.071" mask="url(#mask-3)"><tspan x="154.504" y="219.875">3</tspan></text></g></g></svg>