<svg xmlns="http://www.w3.org/2000/svg" width="256" height="256" fill="none" viewBox="0 0 256 256"><path fill="#62688F" d="M128 243.226C191.638 243.226 243.226 191.638 243.226 128C243.226 64.3624 191.638 12.7739 128 12.7739C64.3624 12.7739 12.7739 64.3624 12.7739 128C12.7739 191.638 64.3624 243.226 128 243.226Z"/><path fill="#1BFED7" d="M128 252.794C59.2036 252.794 3.20605 196.812 3.20605 128C3.20605 59.1885 59.2036 3.20605 128 3.20605C196.797 3.20605 252.794 59.2036 252.794 128C252.794 196.797 196.812 252.794 128 252.794ZM128 22.3418C69.7398 22.3418 22.3418 69.7398 22.3418 128C22.3418 186.26 69.7398 233.658 128 233.658C186.26 233.658 233.658 186.26 233.658 128C233.658 69.7398 186.26 22.3418 128 22.3418V22.3418Z"/><path fill="#A7A7A7" d="M127.99 103.892V163.291L184.77 129.731L127.99 103.892Z"/><path fill="#D3D3D3" d="M127.99 103.892V35.4771L184.77 129.731L127.99 103.892Z"/><path fill="#fff" d="M127.99 35.4771L71.1797 129.731L127.99 103.892V35.4771Z"/><path fill="#D3D3D3" d="M71.1797 129.731L127.99 163.291V103.892L71.1797 129.731Z"/><path fill="#fff" d="M71.1797 140.493L127.99 220.523V174.053L71.1797 140.493Z"/><path fill="#A7A7A7" d="M127.99 174.053L184.815 140.493L127.99 220.523V174.053Z"/></svg>