<svg xmlns="http://www.w3.org/2000/svg" xmlns:xlink="http://www.w3.org/1999/xlink" width="256" height="256" version="1.1" viewBox="0 0 256 256"><title>Group 16</title><defs><polygon id="path-1" points="0 0 256 0 256 256 0 256"/><filter id="filter-3"><feColorMatrix in="SourceGraphic" type="matrix" values="0 0 0 0 1.000000 0 0 0 0 1.000000 0 0 0 0 1.000000 0 0 0 1.000000 0"/></filter><linearGradient id="linearGradient-4" x1="50%" x2="50%" y1="0%" y2="100%"><stop offset="0%" stop-color="#0C71CA"/><stop offset="100%" stop-color="#1D9ED8"/></linearGradient></defs><g id="Page-2" fill="none" fill-rule="evenodd" stroke="none" stroke-width="1"><g id="Group-16"><mask id="mask-2" fill="#fff"><use xlink:href="#path-1"/></mask><g id="Group-3" mask="url(#mask-2)"><g transform="translate(30.000000, 30.000000)"><circle id="Oval" cx="98.5" cy="98.5" r="98.5" fill="#000"/><g id="frALGO" fill="none" stroke-width="1" filter="url(#filter-3)"><g transform="translate(32.000000, 24.000000)"><polygon id="Path" fill="#000" fill-rule="nonzero" points="21.681 126 39.824 94.438 57.968 63 75.989 31.438 78.975 26.44 80.307 31.438 85.834 52.218 79.648 63 61.505 94.438 43.468 126 65.149 126 83.293 94.438 92.694 78.104 97.118 94.438 105.524 126 125 126 116.594 94.438 108.188 63 105.968 54.894 119.457 31.438 99.767 31.438 99.109 29.116 92.25 3.338 91.361 0 72.452 0 72.008 .661 54.309 31.438 36.18 63 18.144 94.438 0 126"/></g></g></g></g><g id="exchange-cny-svgrepo-com-(1)" fill="url(#linearGradient-4)" fill-rule="nonzero" mask="url(#mask-2)"><g id="Shape"><path d="M218.258999,160.506236 C234.540244,121.788253 224.355317,76.9910283 192.938337,49.1362289 C161.521357,21.2814294 115.861012,16.5653386 79.4225345,37.4115949 L67.2827573,16.1364316 C105.07748,-5.48330201 151.504308,-5.37135623 189.194512,16.4303889 C244.141689,48.1777829 265.190497,116.15542 239.577035,172.840196 L256,182.320321 L205.030068,209.437887 L203.010851,151.699764 L218.258999,160.506236 Z M37.7532387,84.4937641 C21.4719934,123.211747 31.6569203,168.008972 63.0739003,195.863771 C94.4908802,223.718571 140.151226,228.434661 176.589703,207.588405 L188.72948,228.863568 C150.934758,250.483302 104.507929,250.371356 66.8177255,228.569611 C11.8705483,196.822217 -9.178259,128.84458 16.4352024,72.1598035 L0,62.6919272 L50.9699316,35.5743615 L52.9891486,93.3124846 L37.741001,84.5060123 L37.7532387,84.4937641 Z" transform="translate(0.000000, 6.000000)"/></g></g></g></g></svg>