<svg xmlns="http://www.w3.org/2000/svg" xmlns:xlink="http://www.w3.org/1999/xlink" width="251" height="250" version="1.1" viewBox="0 0 251 250"><title>Group Copy 2</title><defs><linearGradient id="linearGradient-1" x1="88.236%" x2="12.155%" y1="17.835%" y2="78.993%"><stop offset="0%" stop-color="#1D9DD8"/><stop offset="100%" stop-color="#0E74CC"/></linearGradient><filter id="filter-2"><feColorMatrix in="SourceGraphic" type="matrix" values="0 0 0 0 1.000000 0 0 0 0 1.000000 0 0 0 0 1.000000 0 0 0 1.000000 0"/></filter></defs><g id="Page-3" fill="none" fill-rule="evenodd" stroke="none" stroke-width="1"><g id="Group-Copy-2" transform="translate(0.874046, 0.000000)"><circle id="Oval" cx="125" cy="125" r="125" fill="url(#linearGradient-1)"/><g id="frALGO" filter="url(#filter-2)"><g transform="translate(53.675034, 52.921701)"><polygon id="Path" fill="#000" fill-rule="nonzero" points="21.984 126.748 40.381 94.999 58.779 63.374 77.052 31.625 80.079 26.597 81.43 31.625 87.035 52.528 80.763 63.374 62.365 94.999 44.076 126.748 66.06 126.748 84.458 94.999 93.99 78.568 98.477 94.999 107 126.748 126.748 126.748 118.225 94.999 109.702 63.374 107.45 55.22 121.128 31.625 101.163 31.625 100.495 29.289 93.54 3.357 92.639 0 73.466 0 73.015 .665 55.068 31.625 36.686 63.374 18.397 94.999 0 126.748"/></g></g></g></g></svg>