<svg xmlns="http://www.w3.org/2000/svg" xmlns:xlink="http://www.w3.org/1999/xlink" id="Layer_1" x="0" y="0" version="1.1" viewBox="0 0 256 256" style="enable-background:new 0 0 256 256" xml:space="preserve"><style type="text/css">.st0{opacity:0;fill:#fff}.st1{fill:url(#SVGID_1_)}.st3{enable-background:new}.st5{fill:#334766}.st6{fill:#354969}.st7{fill:#374b6c}.st8{fill:#384e70}.st9{fill:#324462}.st10{fill:#30425f}.st11{fill:#2e405c}.st12{fill:#2d3e59}.st13{fill:#2b3b55}.st15{fill:#4d7696}.st28{fill:#7cbef2}</style><g><rect width="256" height="256" x="-.1" y=".3" class="st0"/><g><g><g><linearGradient id="SVGID_1_" x1="38.773" x2="232.108" y1="123.439" y2="123.439" gradientTransform="matrix(1 0 0 -1 0 255.8898)" gradientUnits="userSpaceOnUse"><stop offset="0" style="stop-color:#2e3873"/><stop offset=".317" style="stop-color:#37467f"/><stop offset=".918" style="stop-color:#4f6c9f"/><stop offset="1" style="stop-color:#5372a4"/></linearGradient><path d="M159.8,49.9c21.5,2.6,39.4,11.3,52,24c17.7,17.7,25,43.1,17.2,69.7c-7.8,26.5-29,48.5-55.5,60.9 c-19,9-40.8,13.1-62.4,10.5c-51.7-6.2-82.6-48.1-69.2-93.7c0.4-1.4,0.9-2.8,1.4-4.2C58.7,73.7,109.7,43.9,159.8,49.9z" class="st1"/></g><linearGradient id="SVGID_00000136387753267063525010000003474216490021878716_" x1="40.22" x2="209.053" y1="119.091" y2="179.467" gradientTransform="matrix(1 0 0 -1 0 255.8898)" gradientUnits="userSpaceOnUse"><stop offset="0" style="stop-color:#101a55"/><stop offset=".545" style="stop-color:#1e2863"/><stop offset="1" style="stop-color:#2e3873"/></linearGradient><path style="fill:url(#SVGID_00000136387753267063525010000003474216490021878716_)" d="M232.1,124.7 c-0.6-17.7-7.9-33.8-20.3-46.2c-12.6-12.6-30.5-21.4-52-24c-50-6-101.1,23.9-116.5,67.2c-0.5,1.4-1,2.8-1.4,4.2 c-1.9,6.4-2.9,12.7-3.1,18.9c-0.3-7.6,0.7-15.5,3.1-23.5c0.4-1.4,0.9-2.8,1.4-4.2C58.7,73.8,109.8,44,159.8,49.9 c21.5,2.6,39.4,11.3,52,24C225.3,87.3,232.7,105.2,232.1,124.7z"/><g class="st3"><g><defs><path id="SVGID_00000031915030351987813460000013084235927307292846_" d="M228.3,99.8l2.6,7.2c4.7,13.3,5.2,28.4,0.7,43.8 c-7.8,26.5-29,48.5-55.5,60.9c-19,9-40.8,13.1-62.4,10.5c-34.2-4.1-59.3-23.8-68.5-49.9l-2.6-7.2 c9.2,26.1,34.3,45.8,68.5,49.9c21.6,2.6,43.4-1.5,62.4-10.5c26.5-12.5,47.7-34.4,55.5-60.9C233.6,128.1,233,113.1,228.3,99.8z"/></defs><clipPath id="SVGID_00000060713862094542483960000005054090424748616102_"><use xlink:href="#SVGID_00000031915030351987813460000013084235927307292846_" style="overflow:visible"/></clipPath><g style="clip-path:url(#SVGID_00000060713862094542483960000005054090424748616102_);enable-background:new"><path d="M228.3,99.8l2.6,7.2c0.2,0.7,0.5,1.3,0.7,2l-2.6-7.2C228.8,101.1,228.5,100.4,228.3,99.8" class="st5"/><path d="M229,101.8l2.6,7.2c1.1,3.5,2,7.1,2.5,10.8l-2.6-7.2C230.9,108.9,230.1,105.3,229,101.8" class="st6"/><path d="M231.4,112.6l2.6,7.2c0.7,4.8,0.9,9.8,0.5,14.9l-2.6-7.2C232.3,122.4,232.1,117.4,231.4,112.6" class="st7"/><path d="M232,127.5l2.6,7.2c-0.4,5.3-1.4,10.7-3,16.1c-2.7,9.3-7.1,17.9-12.7,25.9l-2.6-7.2 c5.6-7.9,10-16.6,12.7-25.9C230.6,138.1,231.6,132.8,232,127.5" class="st8"/><path d="M216.3,169.4l2.6,7.2c-3.2,4.5-6.9,8.8-10.9,12.8l-2.6-7.2C209.4,178.3,213.1,174,216.3,169.4" class="st7"/><path d="M205.4,182.3l2.6,7.2c-3.1,3.1-6.4,6-9.8,8.7l-2.6-7.2C199.1,188.3,202.3,185.4,205.4,182.3" class="st6"/><path d="M195.6,191l2.6,7.2c-3.1,2.4-6.4,4.7-9.7,6.8l-2.6-7.2C189.2,195.7,192.5,193.4,195.6,191" class="st5"/><path d="M185.9,197.8l2.6,7.2c-3.2,2-6.6,3.9-10.1,5.6l-2.6-7.2C179.3,201.7,182.6,199.8,185.9,197.8" class="st9"/><path d="M175.8,203.4l2.6,7.2c-0.8,0.4-1.5,0.7-2.3,1.1c-2.8,1.3-5.6,2.5-8.5,3.6l-2.6-7.2 c2.9-1.1,5.7-2.3,8.5-3.6C174.3,204.2,175.1,203.8,175.8,203.4" class="st10"/><path d="M165.1,208.1l2.6,7.2c-3.9,1.5-8,2.8-12.1,3.9L153,212C157.1,210.9,161.1,209.6,165.1,208.1" class="st11"/><path d="M153,212l2.6,7.2c-4.9,1.3-9.8,2.2-14.9,2.9l-2.6-7.2C143.2,214.2,148.1,213.3,153,212" class="st12"/><path d="M138.1,214.9l2.6,7.2c-8.9,1.1-18,1.2-27,0.1c-34.2-4.1-59.3-23.8-68.5-49.9l-2.6-7.2 c9.2,26.1,34.3,45.8,68.5,49.9C120.2,216.1,129.2,216,138.1,214.9" class="st13"/></g></g></g><linearGradient id="SVGID_00000126316361853167492150000004595780718924313221_" x1="25.2" x2="252.742" y1="89.741" y2="89.741" gradientTransform="matrix(1 0 0 -1 0 255.8898)" gradientUnits="userSpaceOnUse"><stop offset="0" style="stop-color:#002497"/><stop offset=".238" style="stop-color:#06329d"/><stop offset=".689" style="stop-color:#1658ac"/><stop offset="1" style="stop-color:#2376b8"/></linearGradient><path style="fill:url(#SVGID_00000126316361853167492150000004595780718924313221_)" d="M245.6,93.7l2.6,7.2 c5.6,15.8,6.2,33.7,0.8,52c-16,54.1-78.6,92.1-139.9,84.8c-40.6-4.8-70.4-28.3-81.3-59.2l-2.6-7.2c10.9,31,40.7,54.4,81.3,59.2 c61.3,7.3,123.9-30.7,139.9-84.8C251.9,127.3,251.2,109.5,245.6,93.7z"/><g class="st3"><path d="M245.6,93.7l2.6,7.2c0.3,0.8,0.5,1.6,0.8,2.4l-2.6-7.2C246.2,95.3,245.9,94.5,245.6,93.7" class="st15"/></g><linearGradient id="SVGID_00000008835696365580806120000011033020454046501545_" x1="51.383" x2="220.215" y1="48.979" y2="198.552" gradientTransform="matrix(1 0 0 -1 0 255.8898)" gradientUnits="userSpaceOnUse"><stop offset="0" style="stop-color:#0d67f9"/><stop offset=".185" style="stop-color:#1b72f8"/><stop offset=".538" style="stop-color:#4290f6"/><stop offset="1" style="stop-color:#7cbef2"/></linearGradient><path style="fill:url(#SVGID_00000008835696365580806120000011033020454046501545_)" d="M164.3,34.5 c61.3,7.3,98.1,57.1,82.1,111.2s-78.6,92.1-139.9,84.8c-61.3-7.3-98.1-57.1-82.1-111.2C40.4,65.1,103,27.2,164.3,34.5z M173.5,204.5c26.5-12.5,47.7-34.4,55.5-60.9c7.8-26.6,0.5-52-17.2-69.7c-12.6-12.6-30.5-21.4-52-24c-50-6-101.1,23.9-116.5,67.2 c-0.5,1.4-1,2.8-1.4,4.2c-13.4,45.6,17.5,87.6,69.2,93.7C132.7,217.6,154.5,213.5,173.5,204.5"/><g><linearGradient id="SVGID_00000113317123665543903000000006578235935946580654_" x1="130.5" x2="191" y1="158.64" y2="158.64" gradientTransform="matrix(1 0 0 -1 0 255.8898)" gradientUnits="userSpaceOnUse"><stop offset="0" style="stop-color:#004794"/><stop offset=".071" style="stop-color:#004a96"/><stop offset="1" style="stop-color:#0075a8"/></linearGradient><polygon style="fill:url(#SVGID_00000113317123665543903000000006578235935946580654_)" points="190.5 68.4 191 69.7 131 126.1 130.5 124.8"/></g><g><linearGradient id="SVGID_00000008844512303811795710000003591199111093189054_" x1="86.291" x2="124.812" y1="169.488" y2="135.066" gradientTransform="matrix(1 0 0 -1 0 255.8898)" gradientUnits="userSpaceOnUse"><stop offset="0" style="stop-color:#00236a"/><stop offset="1" style="stop-color:#2d3973"/></linearGradient><polygon style="fill:url(#SVGID_00000008844512303811795710000003591199111093189054_)" points="130.5 124.8 131 126.1 96.8 96.9 96.3 95.6"/></g><g><linearGradient id="SVGID_00000046318996727078035790000014330493299932361613_" x1="76.786" x2="115.306" y1="158.851" y2="124.429" gradientTransform="matrix(1 0 0 -1 0 255.8898)" gradientUnits="userSpaceOnUse"><stop offset="0" style="stop-color:#00236a"/><stop offset="1" style="stop-color:#2d3973"/></linearGradient><polygon style="fill:url(#SVGID_00000046318996727078035790000014330493299932361613_)" points="116.5 131.1 117 132.4 76.6 98.3 76.1 97"/></g><g><linearGradient id="SVGID_00000155862878503025906140000000618939275080928909_" x1="146.567" x2="164.167" y1="139.39" y2="139.39" gradientTransform="matrix(1 0 0 -1 0 255.8898)" gradientUnits="userSpaceOnUse"><stop offset="0" style="stop-color:#004794"/><stop offset=".071" style="stop-color:#004a96"/><stop offset="1" style="stop-color:#0075a8"/></linearGradient><polygon style="fill:url(#SVGID_00000155862878503025906140000000618939275080928909_)" points="163.7 103.6 164.2 104.9 147 129.4 146.6 128.1"/></g><g><linearGradient id="SVGID_00000172417462024299775940000012894672507798413736_" x1="97.971" x2="125.371" y1="112.89" y2="112.89" gradientTransform="matrix(1 0 0 -1 0 255.8898)" gradientUnits="userSpaceOnUse"><stop offset="0" style="stop-color:#004794"/><stop offset=".071" style="stop-color:#004a96"/><stop offset="1" style="stop-color:#0075a8"/></linearGradient><polygon style="fill:url(#SVGID_00000172417462024299775940000012894672507798413736_)" points="124.9 130 125.4 131.3 98.4 156 98 154.7"/></g><g><linearGradient id="SVGID_00000161599912103334517220000008733970537815681700_" x1="71.6" x2="131.7" y1="88.24" y2="88.24" gradientTransform="matrix(1 0 0 -1 0 255.8898)" gradientUnits="userSpaceOnUse"><stop offset="0" style="stop-color:#006f7f"/><stop offset=".43" style="stop-color:#006187"/><stop offset="1" style="stop-color:#004794"/></linearGradient><polygon style="fill:url(#SVGID_00000161599912103334517220000008733970537815681700_)" points="131.2 144.1 131.7 145.4 72.1 191.2 71.6 189.9"/></g><g><linearGradient id="SVGID_00000027570363107375379550000005100088024235213199_" x1="131.243" x2="156.877" y1="100.39" y2="100.39" gradientTransform="matrix(1 0 0 -1 0 255.8898)" gradientUnits="userSpaceOnUse"><stop offset="0" style="stop-color:#00236a"/><stop offset="1" style="stop-color:#2d3973"/></linearGradient><polygon style="fill:url(#SVGID_00000027570363107375379550000005100088024235213199_)" points="156.4 165.6 156.9 166.9 131.7 145.4 131.2 144.1"/></g><g><linearGradient id="SVGID_00000163031238448214674460000002607840287708154801_" x1="156.416" x2="165.748" y1="90.19" y2="90.19" gradientTransform="matrix(1 0 0 -1 0 255.8898)" gradientUnits="userSpaceOnUse"><stop offset="0" style="stop-color:#00236a"/><stop offset="1" style="stop-color:#2d3973"/></linearGradient><polygon style="fill:url(#SVGID_00000163031238448214674460000002607840287708154801_)" points="165.3 164.5 165.7 165.8 156.9 166.9 156.4 165.6"/></g><g><linearGradient id="SVGID_00000156550697475392057110000002949327076168986793_" x1="136.2" x2="177" y1="108.59" y2="108.59" gradientTransform="matrix(1 0 0 -1 0 255.8898)" gradientUnits="userSpaceOnUse"><stop offset="0" style="stop-color:#00236a"/><stop offset="1" style="stop-color:#2d3973"/></linearGradient><polygon style="fill:url(#SVGID_00000156550697475392057110000002949327076168986793_)" points="176.6 164.1 177 165.4 136.7 130.5 136.2 129.2"/></g><radialGradient id="SVGID_00000025408166045545137460000007431511891930976952_" cx="152.387" cy="152.141" r="119.116" gradientTransform="matrix(1 0 0 -1 0 255.8898)" gradientUnits="userSpaceOnUse"><stop offset="0" style="stop-color:#cbfffc"/><stop offset=".077" style="stop-color:#c3fdfc"/><stop offset=".194" style="stop-color:#aef7fb"/><stop offset=".338" style="stop-color:#8beef9"/><stop offset=".502" style="stop-color:#5be2f7"/><stop offset=".623" style="stop-color:#32d7f5"/><stop offset=".653" style="stop-color:#30cff5"/><stop offset=".798" style="stop-color:#25aef4"/><stop offset=".919" style="stop-color:#1f9af4"/><stop offset="1" style="stop-color:#1d93f4"/></radialGradient><path style="fill:url(#SVGID_00000025408166045545137460000007431511891930976952_)" d="M190.5,68.4l-60,56.4L96.3,95.6 l10.8-0.8l23.3,20.3L190.5,68.4z M124.9,130L85.5,96.4L76.1,97l40.4,34L98,154.7L124.9,130z M131.2,144.1l25.2,21.5l8.9-1.1 l-34.7-30l-59,55.5L131.2,144.1z M163.7,103.6l-27.5,25.6l40.4,34.9l10.8-1.2L146.6,128L163.7,103.6z"/><g><linearGradient id="SVGID_00000012438747287614375470000000430538252340706979_" x1="176.581" x2="187.881" y1="91.69" y2="91.69" gradientTransform="matrix(1 0 0 -1 0 255.8898)" gradientUnits="userSpaceOnUse"><stop offset="0" style="stop-color:#00236a"/><stop offset="1" style="stop-color:#2d3973"/></linearGradient><polygon style="fill:url(#SVGID_00000012438747287614375470000000430538252340706979_)" points="187.4 163 187.9 164.3 177 165.4 176.6 164.1"/></g></g><path d="M159.8,49.9c-50-6-101.1,23.9-116.5,67.2c-0.5,1.4-1,2.8-1.4,4.2c-5.2,17.8-3.7,35,3.2,49.8 C40.6,161,38.6,150,39.3,139c0.6-10.9,3.8-21.6,8.7-31.4c5-9.7,11.7-18.5,19.6-26.1c7.9-7.5,17-13.8,26.7-18.8 c4.9-2.5,9.9-4.7,15-6.5c5.2-1.8,10.4-3.2,15.8-4.3c5.4-1.1,10.8-1.8,16.3-2.1s10.9-0.2,16.4,0.3c10.9,1,21.7,3.7,31.6,8.3 c5,2.3,9.7,5.1,14.2,8.3c0.6,0.4,1.1,0.8,1.6,1.2l1.6,1.3c1,0.9,2.1,1.8,3.1,2.7c2,1.8,4,3.8,5.8,5.9c-1.2-1.4-2.5-2.8-3.8-4.1 C199.2,61.2,181.3,52.4,159.8,49.9z" class="st28"/><path d="M246.5,145.7c5.2-17.7,4.8-35-0.3-50.4c1.7,5.6,2.9,11.5,3.3,17.3c0.2,2.9,0.4,5.9,0.3,8.8 c0,1.5-0.1,2.9-0.2,4.4c-0.1,0.7-0.1,1.5-0.2,2.2c-0.1,0.7-0.1,1.5-0.3,2.2l-0.3,2.2l-0.4,2.2l-0.2,1.1l-0.2,1.1l-0.4,2.2 c-0.7,2.8-1.4,5.7-2.4,8.5l-0.7,2.1l-0.3,1l-0.4,1c-0.5,1.4-1.1,2.7-1.6,4.1l-1.8,4c-0.3,0.7-0.7,1.3-1,2l-1,1.9 c-2.8,5.2-5.9,10.1-9.5,14.8c-3.5,4.7-7.4,9-11.6,13.1l-1.6,1.5c-0.5,0.5-1,1-1.6,1.5l-3.3,2.9c-2.3,1.9-4.5,3.7-6.9,5.5l-1.8,1.3 l-1.8,1.2l-1.8,1.2l-0.9,0.6l-0.9,0.6l-3.7,2.3l-3.8,2.2c-5.1,2.9-10.4,5.4-15.8,7.7c-5.4,2.2-11,4.1-16.6,5.6 c-5.7,1.5-11.4,2.7-17.2,3.5l-4.4,0.6l-4.4,0.4c-1.5,0.2-2.9,0.2-4.4,0.3s-2.9,0.1-4.4,0.1c-5.9,0.1-11.7-0.3-17.6-1 c-2.9-0.4-5.8-0.9-8.7-1.4c-2.9-0.6-5.7-1.3-8.6-2.1c-11.3-3.1-22.1-8.1-31.8-14.9c13.8,10.1,31.1,16.9,51.1,19.3 C167.9,237.7,230.5,199.8,246.5,145.7z" class="st28"/><linearGradient id="SVGID_00000088852032203862992080000016093390250127751056_" x1="122.064" x2="232.433" y1="23.058" y2="189.705" gradientTransform="matrix(1 0 0 -1 0 255.8898)" gradientUnits="userSpaceOnUse"><stop offset="0" style="stop-color:#146df9;stop-opacity:0"/><stop offset=".1" style="stop-color:#2376f9;stop-opacity:1.994025e-02"/><stop offset=".29" style="stop-color:#498efa;stop-opacity:5.799286e-02"/><stop offset=".551" style="stop-color:#86b4fc;stop-opacity:.1102"/><stop offset=".87" style="stop-color:#dbe8fe;stop-opacity:.174"/><stop offset="1" style="stop-color:#fff;stop-opacity:.2"/></linearGradient><path style="fill:url(#SVGID_00000088852032203862992080000016093390250127751056_)" d="M246.5,145.7 c-15.9,54.1-78.6,92.1-139.9,84.8c-17.1-2-32.3-7.4-45-15.2L198.5,43.9C238.4,62.2,259.2,102.5,246.5,145.7z"/><linearGradient id="SVGID_00000003803557779215652330000004721820682734138815_" x1="140.107" x2="171.483" y1="136.364" y2="212.758" gradientTransform="matrix(1 0 0 -1 0 255.8898)" gradientUnits="userSpaceOnUse"><stop offset="0" style="stop-color:#146df9;stop-opacity:0"/><stop offset=".09" style="stop-color:#1d72f9;stop-opacity:1.802590e-02"/><stop offset=".236" style="stop-color:#3581fa;stop-opacity:4.722305e-02"/><stop offset=".42" style="stop-color:#5c9afb;stop-opacity:8.394278e-02"/><stop offset=".634" style="stop-color:#92bbfc;stop-opacity:.1268"/><stop offset=".871" style="stop-color:#d6e6fe;stop-opacity:.1741"/><stop offset="1" style="stop-color:#fff;stop-opacity:.2"/></linearGradient><path style="fill:url(#SVGID_00000003803557779215652330000004721820682734138815_)" d="M172.1,60.9c13.1,3.1,23.7,8.2,30.7,14.3 c9.9,8.6,12.8,19.1,6.4,28.6c-6.4,9.5-20.8,15.9-38,18.2c-12.3,1.6-26,1.1-39.2-2c-31.5-7.4-48.1-26.6-37.1-42.9 c0.3-0.5,0.7-1,1.1-1.5C108.2,60.4,141.5,53.8,172.1,60.9z"/><linearGradient id="SVGID_00000115476328093598488240000002823149112141884833_" x1="147.327" x2="66.379" y1="107.681" y2="215.102" gradientTransform="matrix(1 0 0 -1 0 255.8898)" gradientUnits="userSpaceOnUse"><stop offset="0" style="stop-color:#0d67f9;stop-opacity:0"/><stop offset=".185" style="stop-color:#1b72f8;stop-opacity:.1851"/><stop offset=".538" style="stop-color:#4290f6;stop-opacity:.5381"/><stop offset="1" style="stop-color:#7cbef2"/></linearGradient><path style="fill:none;stroke:url(#SVGID_00000115476328093598488240000002823149112141884833_);stroke-width:.5236;stroke-miterlimit:10" d="M27.7,211C5,186.6-4.2,152.6,6.3,117.1C24.9,54.1,97.7,10,169.1,18.5c38.2,4.5,68.2,23.2,84.9,49.3"/><linearGradient id="SVGID_00000007402997713477647560000016602897606982523043_" x1="83.575" x2="141.355" y1="221.288" y2="112.285" gradientTransform="matrix(1 0 0 -1 0 255.8898)" gradientUnits="userSpaceOnUse"><stop offset="0" style="stop-color:#7cbef2"/><stop offset=".462" style="stop-color:#4290f6;stop-opacity:.5381"/><stop offset=".815" style="stop-color:#1b72f8;stop-opacity:.1851"/><stop offset="1" style="stop-color:#0d67f9;stop-opacity:0"/></linearGradient><path style="fill:url(#SVGID_00000007402997713477647560000016602897606982523043_)" d="M31.1,207.6l-0.2-0.2l8.5-7.8l0.1,0.1 L31.1,207.6z M25.4,179.3l-0.2-0.4l-10.4,5c0.1,0.2,0.2,0.3,0.3,0.5L25.4,179.3z M18.1,155.3l-0.1-0.5l-11.4,1.5l0.1,0.6 L18.1,155.3z M18.5,129.7l-11.4-1.9L7,128.4l11.4,1.8L18.5,129.7z M25.9,105.5l-10.5-4.7l-0.2,0.5l10.5,4.7L25.9,105.5z M39.1,83.6l-9.1-7L29.6,77l9.2,7L39.1,83.6z M56.8,65l-7.5-8.7l-0.4,0.4l7.6,8.7L56.8,65z M230.6,46.8l-0.4-0.4l-7.4,8.8l0.4,0.3 L230.6,46.8z M77.9,50l-5.8-10l-0.5,0.3l5.8,9.9L77.9,50z M206.8,31.4l-0.5-0.2l-4.9,10.4l0.5,0.2L206.8,31.4z M101.3,39.1 l-3.9-10.8l-0.5,0.2l4,10.8L101.3,39.1z M180.1,22.3l-0.5-0.1l-2.4,11.3l0.5,0.1L180.1,22.3z M126.3,32.5l-1.9-11.4l-0.5,0.1 l2,11.3H126.3z M152.3,19h-0.6l-0.2,11.5h0.5L152.3,19z M249.3,68.2l-0.2-0.3l-9.6,6.3l0.1,0.2L249.3,68.2z"/><linearGradient id="SVGID_00000160180436703318345590000012464615046549171121_" x1="236.343" x2="74.21" y1="190.219" y2="28.086" gradientTransform="matrix(1 0 0 -1 0 255.8898)" gradientUnits="userSpaceOnUse"><stop offset="0" style="stop-color:#fff;stop-opacity:.2"/><stop offset="1" style="stop-color:#3f9ef8;stop-opacity:0"/></linearGradient><path style="fill:url(#SVGID_00000160180436703318345590000012464615046549171121_)" d="M198.3,43.8l-10.9,13.5 c9.5,4.2,17.7,9.8,24.4,16.5c17.7,17.7,25,43.1,17.2,69.7c-7.8,26.5-29,48.5-55.5,60.9c-19,9-40.8,13.1-62.4,10.5 c-26.2-3.1-47-15.4-59.5-32.7l-26.9-12.8c10.4,31.8,40.6,56,81.9,60.9c61.3,7.3,123.9-30.7,139.9-84.8 C259.2,102.5,238.4,62.1,198.3,43.8z"/><radialGradient id="SVGID_00000008137694753271272190000014614359331878712200_" cx="279.04" cy="246.989" r="58.27" gradientTransform="matrix(0.8928 0.4505 0.4231 -0.8385 -186.8281 219.9429)" gradientUnits="userSpaceOnUse"><stop offset="0" style="stop-color:#fff;stop-opacity:.2"/><stop offset="1" style="stop-color:#3f9ef8;stop-opacity:0"/></radialGradient><path style="fill:url(#SVGID_00000008137694753271272190000014614359331878712200_)" d="M226.9,168.9 c-13.6,26.9-51.5,35.2-84.7,18.4s-49.1-52.1-35.5-79.1s51.5-35.2,84.7-18.4S240.5,142,226.9,168.9z"/></g></g></svg>