<svg xmlns="http://www.w3.org/2000/svg" xmlns:xlink="http://www.w3.org/1999/xlink" width="256" height="256" version="1.1" viewBox="0 0 256 256"><title>Group 4</title><defs><linearGradient id="linearGradient-1" x1="100%" x2="0%" y1="50%" y2="50%"><stop offset="0%" stop-color="#1D9DD8"/><stop offset="100%" stop-color="#0D73CB"/></linearGradient><filter id="filter-2"><feColorMatrix in="SourceGraphic" type="matrix" values="0 0 0 0 1.000000 0 0 0 0 1.000000 0 0 0 0 1.000000 0 0 0 1.000000 0"/></filter></defs><g id="Page-2" fill="none" fill-rule="evenodd" stroke="none" stroke-width="1"><g id="Group-4"><circle id="Oval" cx="128" cy="128" r="128" fill="url(#linearGradient-1)"/><g id="Group" transform="translate(18.151171, 17.466221)"><circle id="Oval" cx="110.619" cy="110.619" r="110.619" fill="#000"/><g id="frALGO" filter="url(#filter-2)"><g transform="translate(37.843478, 31.850167)"><polygon id="Path" fill="#000" fill-rule="nonzero" points="24.027 138.531 44.135 103.831 64.243 69.266 84.215 34.565 87.524 29.069 89 34.565 95.126 57.411 88.27 69.266 68.163 103.831 48.174 138.531 72.201 138.531 92.309 103.831 102.728 85.872 107.631 103.831 116.947 138.531 138.531 138.531 129.215 103.831 119.9 69.266 117.439 60.354 132.388 34.565 110.567 34.565 109.837 32.012 102.235 3.67 101.251 0 80.295 0 79.803 .727 60.187 34.565 40.097 69.266 20.108 103.831 0 138.531"/></g></g></g></g></g></svg>