<svg xmlns="http://www.w3.org/2000/svg" xmlns:xlink="http://www.w3.org/1999/xlink" width="256" height="256" version="1.1" viewBox="0 0 256 256"><title>Group 4</title><defs><linearGradient id="linearGradient-1" x1="100%" x2="0%" y1="50%" y2="50%"><stop offset="0%" stop-color="#1D9DD8"/><stop offset="100%" stop-color="#0D73CB"/></linearGradient></defs><g id="Page-2" fill="none" fill-rule="evenodd" stroke="none" stroke-width="1"><g id="Group-4"><circle id="Oval" cx="128" cy="128" r="128" fill="url(#linearGradient-1)"/><g id="Group" fill="#000" transform="translate(18.151171, 17.466221)"><circle id="Oval" cx="110.619" cy="110.619" r="110.619"/></g><g id="usdt" fill-rule="nonzero" transform="translate(18.151171, 17.294983)"><path id="Path" fill="#1BA27A" d="M221.752508,110.876343 C221.752508,172.112992 172.113564,221.752508 110.876763,221.752508 C49.6415625,221.752508 0,172.112992 0,110.876343 C0,49.6403899 49.6415625,0 110.876763,0 C172.113564,0 221.752508,49.6403899 221.752508,110.876343 Z"/><polygon id="Path" fill="#FFF" points="164.045 54.967 58.906 54.967 58.906 80.412 98.784 80.412 98.784 117.811 124.167 117.811 124.167 80.412 164.045 80.412"/><path id="Shape" fill="#FFF" d="M111.818582,122.714906 C78.8881044,122.714906 52.1896249,117.492006 52.1896249,111.04729 C52.1896249,104.60397 78.886712,99.3796751 111.818582,99.3796751 C144.749757,99.3796751 171.446983,104.60397 171.446983,111.04729 C171.446983,117.492006 144.749757,122.714906 111.818582,122.714906 Z M178.771906,112.992707 C178.771906,104.682819 148.796183,97.9478261 111.818582,97.9478261 C74.8423739,97.9478261 44.864214,104.682819 44.864214,112.992707 C44.864214,120.310348 68.1085406,126.406871 98.9099798,127.757777 L98.9099798,181.340468 L124.246097,181.340468 L124.246097,127.778711 C155.284947,126.469671 178.771906,120.348029 178.771906,112.992707 Z"/></g></g></g></svg>