<svg xmlns="http://www.w3.org/2000/svg" xmlns:xlink="http://www.w3.org/1999/xlink" id="Layer_1" x="0" y="0" version="1.1" viewBox="0 0 256 256" style="enable-background:new 0 0 256 256" xml:space="preserve"><style type="text/css">.st0{fill:url(#SVGID_1_);stroke:url(#SVGID_2_);stroke-width:7;stroke-miterlimit:10}.st1{fill:url(#SVGID_3_)}.st2{fill:url(#SVGID_4_)}.st3{fill:url(#SVGID_5_)}.st4{fill:url(#SVGID_6_)}.st5{fill:url(#SVGID_7_)}.st6{fill:url(#SVGID_8_)}.st7{fill:url(#SVGID_9_)}.st8{fill:url(#SVGID_10_)}.st9{fill:url(#SVGID_11_)}.st10{fill:url(#SVGID_12_)}</style><g><linearGradient id="SVGID_1_" x1="114.124" x2="143.988" y1="-62.681" y2="359.489" gradientUnits="userSpaceOnUse"><stop offset="0" style="stop-color:#1a1a1a"/><stop offset="1" style="stop-color:#000"/></linearGradient><linearGradient id="SVGID_2_" x1="2.68" x2="252.564" y1="128.138" y2="128.138" gradientUnits="userSpaceOnUse"><stop offset="0" style="stop-color:#00df76"/><stop offset="1" style="stop-color:#00a2cd"/></linearGradient><circle cx="127.62" cy="128.14" r="121.44" class="st0"/><g><linearGradient id="SVGID_3_" x1="83.899" x2="208.168" y1="135.904" y2="89.303" gradientUnits="userSpaceOnUse"><stop offset="0" style="stop-color:#ff6ea1"/><stop offset="1" style="stop-color:#ff0007"/></linearGradient><path d="M64.89,177.52l25.2,0.03l26.77-59.71l-12.91-33.41C95.97,102.64,66.15,173.1,64.89,177.52z" class="st1"/><linearGradient id="SVGID_4_" x1="98.362" x2="222.631" y1="174.472" y2="127.871" gradientUnits="userSpaceOnUse"><stop offset="0" style="stop-color:#ff6ea1"/><stop offset="1" style="stop-color:#ff0007"/></linearGradient><path d="M114.97,177.58l24.98,0.03l-12.65-32.72C121.15,160.79,115.6,175.38,114.97,177.58z" class="st2"/><linearGradient id="SVGID_5_" x1="76.217" x2="200.486" y1="115.419" y2="68.818" gradientUnits="userSpaceOnUse"><stop offset="0" style="stop-color:#ff6ea1"/><stop offset="1" style="stop-color:#ff0007"/></linearGradient><path d="M174.54,85.38c0-1.28-0.33-2.4-0.98-3.36c0.65-0.96,0.98-2.09,0.98-3.39c0-1.45-0.39-2.67-1.16-3.66 c-0.86-1.11-2.03-1.66-3.51-1.66h-9.86v3.73h9.22c0.44,0,0.77,0.16,1,0.47c0.23,0.31,0.35,0.68,0.35,1.11 c0,0.34-0.07,0.65-0.22,0.94c-0.15,0.28-0.35,0.48-0.6,0.6h-9.75v0.1v3.65h9.22c0.44,0,0.77,0.15,1,0.44 c0.23,0.29,0.35,0.65,0.35,1.06c0,0.42-0.12,0.79-0.36,1.11c-0.24,0.32-0.57,0.47-0.99,0.47h-9.22v3.66h9.86 c1.48,0,2.64-0.55,3.51-1.64C174.16,88,174.54,86.8,174.54,85.38z" class="st3"/><linearGradient id="SVGID_6_" x1="76.217" x2="200.486" y1="115.419" y2="68.818" gradientUnits="userSpaceOnUse"><stop offset="0" style="stop-color:#ff6ea1"/><stop offset="1" style="stop-color:#ff0007"/></linearGradient><path d="M174.54,85.38c0-1.28-0.33-2.4-0.98-3.36c0.65-0.96,0.98-2.09,0.98-3.39c0-1.45-0.39-2.67-1.16-3.66 c-0.86-1.11-2.03-1.66-3.51-1.66h-9.86v3.73h9.22c0.44,0,0.77,0.16,1,0.47c0.23,0.31,0.35,0.68,0.35,1.11 c0,0.34-0.07,0.65-0.22,0.94c-0.15,0.28-0.35,0.48-0.6,0.6h-9.75v0.1v3.65h9.22c0.44,0,0.77,0.15,1,0.44 c0.23,0.29,0.35,0.65,0.35,1.06c0,0.42-0.12,0.79-0.36,1.11c-0.24,0.32-0.57,0.47-0.99,0.47h-9.22v3.66h9.86 c1.48,0,2.64-0.55,3.51-1.64C174.16,88,174.54,86.8,174.54,85.38z" class="st4"/><linearGradient id="SVGID_7_" x1="78.167" x2="202.435" y1="120.617" y2="74.016" gradientUnits="userSpaceOnUse"><stop offset="0" style="stop-color:#ff6ea1"/><stop offset="1" style="stop-color:#ff0007"/></linearGradient><path d="M189.19,74.97c-0.86-1.11-2.03-1.66-3.51-1.66h-9.86v3.73h9.22c0.44,0,0.77,0.16,1,0.47 c0.23,0.31,0.35,0.68,0.35,1.11c0,0.34-0.07,0.65-0.22,0.94c-0.15,0.28-0.35,0.48-0.6,0.6h-9.75v0.1v3.65h9.22 c0.44,0,0.77,0.15,1,0.44c0.23,0.29,0.35,0.65,0.35,1.06c0,0.42-0.12,0.79-0.36,1.11c-0.24,0.32-0.57,0.47-0.99,0.47h-9.22v3.66 h9.86c1.48,0,2.64-0.55,3.51-1.64c0.78-0.99,1.16-2.2,1.16-3.61c0-1.28-0.33-2.4-0.98-3.36c0.65-0.96,0.98-2.09,0.98-3.39 C190.36,77.18,189.97,75.96,189.19,74.97z" class="st5"/><linearGradient id="SVGID_8_" x1="78.167" x2="202.435" y1="120.617" y2="74.016" gradientUnits="userSpaceOnUse"><stop offset="0" style="stop-color:#ff6ea1"/><stop offset="1" style="stop-color:#ff0007"/></linearGradient><path d="M189.19,74.97c-0.86-1.11-2.03-1.66-3.51-1.66h-9.86v3.73h9.22c0.44,0,0.77,0.16,1,0.47 c0.23,0.31,0.35,0.68,0.35,1.11c0,0.34-0.07,0.65-0.22,0.94c-0.15,0.28-0.35,0.48-0.6,0.6h-9.75v0.1v3.65h9.22 c0.44,0,0.77,0.15,1,0.44c0.23,0.29,0.35,0.65,0.35,1.06c0,0.42-0.12,0.79-0.36,1.11c-0.24,0.32-0.57,0.47-0.99,0.47h-9.22v3.66 h9.86c1.48,0,2.64-0.55,3.51-1.64c0.78-0.99,1.16-2.2,1.16-3.61c0-1.28-0.33-2.4-0.98-3.36c0.65-0.96,0.98-2.09,0.98-3.39 C190.36,77.18,189.97,75.96,189.19,74.97z" class="st6"/><linearGradient id="SVGID_9_" x1="100.742" x2="225.011" y1="180.817" y2="134.217" gradientUnits="userSpaceOnUse"><stop offset="0" style="stop-color:#ff6ea1"/><stop offset="1" style="stop-color:#ff0007"/></linearGradient><path d="M167.18,127.17l-14.44,35.06c1.85,5.45,3.7,10.67,5.46,15.39l27.58,0.03 C183.98,177.66,172.18,143.67,167.18,127.17z" class="st7"/><linearGradient id="SVGID_10_" x1="100.742" x2="225.011" y1="180.817" y2="134.217" gradientUnits="userSpaceOnUse"><stop offset="0" style="stop-color:#ff6ea1"/><stop offset="1" style="stop-color:#ff0007"/></linearGradient><path d="M167.18,127.17l-14.44,35.06c1.85,5.45,3.7,10.67,5.46,15.39l27.58,0.03 C183.98,177.66,172.18,143.67,167.18,127.17z" class="st8"/><linearGradient id="SVGID_11_" x1="85.86" x2="210.129" y1="141.133" y2="94.532" gradientUnits="userSpaceOnUse"><stop offset="0" style="stop-color:#ff6ea1"/><stop offset="1" style="stop-color:#ff0007"/></linearGradient><path d="M140.17,177.6l9.99-23.56l22.63-53.35l-13.09-0.08c0,0,0,0,0-0.01l-14.1-0.09c0.1-0.24,0.17-0.4,0.21-0.46 l13.03-1.89c-1.74-4.78-3.52-8.71-5.33-11.8c-0.81-1.38-3.52-5.68-3.86-6.15c-2.06-2.95-5.05-5.21-8.98-6.78 c-3.93-1.57-8.21-2.35-12.85-2.36c-4.64-0.01-8.94,0.77-12.9,2.33c-3.96,1.56-6.97,3.81-9.04,6.76c-0.13,0.2-0.82,1.73-1.93,4.26 l12.91,33.41l8.03-17.92c0.46-0.87,1.46-5.08,4.36-5.08c2.84,0,4.78,6.05,7.12,12.4c0.83,2.29,1.71,4.87,2.63,7.74 c-3.34,8.44-7.64,19.45-11.69,29.9l12.65,32.72L140.17,177.6L140.17,177.6z" class="st9"/><linearGradient id="SVGID_12_" x1="85.86" x2="210.129" y1="141.133" y2="94.532" gradientUnits="userSpaceOnUse"><stop offset="0" style="stop-color:#ff6ea1"/><stop offset="1" style="stop-color:#ff0007"/></linearGradient><path d="M140.17,177.6l9.99-23.56l22.63-53.35l-13.09-0.08c0,0,0,0,0-0.01l-14.1-0.09c0.1-0.24,0.17-0.4,0.21-0.46 l13.03-1.89c-1.74-4.78-3.52-8.71-5.33-11.8c-0.81-1.38-3.52-5.68-3.86-6.15c-2.06-2.95-5.05-5.21-8.98-6.78 c-3.93-1.57-8.21-2.35-12.85-2.36c-4.64-0.01-8.94,0.77-12.9,2.33c-3.96,1.56-6.97,3.81-9.04,6.76c-0.13,0.2-0.82,1.73-1.93,4.26 l12.91,33.41l8.03-17.92c0.46-0.87,1.46-5.08,4.36-5.08c2.84,0,4.78,6.05,7.12,12.4c0.83,2.29,1.71,4.87,2.63,7.74 c-3.34,8.44-7.64,19.45-11.69,29.9l12.65,32.72L140.17,177.6L140.17,177.6z" class="st10"/></g></g></svg>