<svg xmlns="http://www.w3.org/2000/svg" xmlns:svg="http://www.w3.org/2000/svg" id="svg8" width="256" height="256" fill="none" version="1.1" viewBox="0 0 256 256"><defs id="defs12"><linearGradient id="linearGradient4079"><stop style="stop-color:#d45500;stop-opacity:1" id="stop4077" offset="0"/></linearGradient></defs><circle id="circle2" cx="128" cy="128" r="128" fill="#2F3130" style="fill:#0ff;fill-opacity:1"/><path id="path6" fill="#fff" d="M 61.557015,129.98021 C 61.184973,128.36561 78.3431,55 80,55 h 19 c 1.657,0 3,1.3431 3,3 v 32 c 0,3.866 3.134,52.98058 7,52.98058 h 38 c 3.866,0 7,-49.11458 7,-52.98058 V 58 c 0,-1.6569 1.343,-3 3,-3 h 19 c 1.657,0 17.19112,74.85152 17.19112,74.85152 L 179,197 c -0.34262,1.62119 -1.343,3 -3,3 h -19 c -1.657,0 -2.79003,-1.35636 -3,-3 l -6.83495,-53.50485 C 146.67517,139.66031 150.866,125 147,125 h -38 c -3.866,0 0.32205,14.34927 -0.16505,18.18447 L 102,197 c -0.20877,1.6438 -1.343,3 -3,3 H 80 c -1.6569,0 -2.627936,-1.38531 -3,-3 z" style="fill:purple;fill-opacity:.74698794"/></svg>